<svg id="Layer_1" data-name="Layer 1" xmlns="http://www.w3.org/2000/svg" viewBox="0 0 80 80"><defs><style>.cls-1{fill:#4866a7;}.cls-2{fill:#c5d8ec;}.cls-3{fill:#8bacd2;}.cls-4{fill:#c7d7ee;}.cls-5{fill:none;stroke:#4866a7;stroke-miterlimit:10;}.cls-6{fill:#29367b;}.cls-7{fill:#191c49;}.cls-8{fill:#e3f1e8;}.cls-9{fill:#11a14a;}</style></defs><title>computer</title><polygon class="cls-1" points="19.39 1.86 19.39 54.84 23.18 54.84 23.18 58.62 15.61 58.62 15.61 77.54 0.47 77.54 0.47 58.62 8.04 58.62 8.04 54.84 4.26 54.84 4.26 51.05 0.47 51.05 0.47 17 4.26 17 4.26 13.22 8.04 13.22 8.04 1.86 19.39 1.86"/><rect class="cls-2" x="15.61" y="58.62" width="64.33" height="18.92"/><rect class="cls-2" x="23.18" y="56.73" width="56.76" height="9.46"/><rect class="cls-3" x="23.18" y="54.84" width="49.19" height="1.89"/><rect class="cls-3" x="53.6" y="62.46" width="22.55" height="3.73"/><rect class="cls-3" x="26.91" y="62.46" width="3.88" height="3.78"/><rect class="cls-3" x="19.34" y="62.46" width="3.88" height="3.78"/><rect class="cls-3" x="23.13" y="66.19" width="3.88" height="3.78"/><rect class="cls-3" x="19.29" y="69.97" width="3.88" height="3.78"/><rect class="cls-3" x="30.65" y="69.97" width="3.88" height="3.78"/><rect class="cls-4" x="19.39" y="1.87" width="56.76" height="52.97"/><rect class="cls-5" x="26.96" y="9.43" width="41.62" height="37.84"/><rect class="cls-3" x="23.22" y="5.65" width="45.36" height="3.78"/><rect class="cls-3" x="49.68" y="24.58" width="41.6" height="3.78" transform="translate(96.95 -44) rotate(90)"/><polyline class="cls-6" points="26.96 13.22 26.96 47.27 64.8 47.27 64.8 13.22 26.96 13.22"/><polygon class="cls-7" points="26.96 9.43 68.58 9.43 68.58 47.27 64.8 47.27 64.8 13.22 26.96 13.22 26.96 9.43"/><rect class="cls-8" x="23.18" y="9.43" width="3.78" height="37.84"/><rect class="cls-9" x="29.55" y="16.55" width="16.33" height="3.78"/><rect class="cls-9" x="33.14" y="24.58" width="16.33" height="3.78"/><rect class="cls-9" x="29.55" y="31.9" width="16.33" height="3.78"/></svg>