<svg id="Layer_1" data-name="Layer 1" xmlns="http://www.w3.org/2000/svg" viewBox="0 0 1920 1080"><defs><style>.cls-1{fill:#c1d8f0;}.cls-2{fill:#eaece7;}</style></defs><title>nube</title><polygon class="cls-1" points="213.49 714.72 203.15 714.72 203.15 735.4 192.81 735.4 192.81 745.75 182.47 745.75 182.47 776.77 192.81 776.77 192.81 787.11 285.87 787.11 285.87 776.77 296.21 776.77 296.21 756.09 285.62 756.09 285.62 745.75 254.85 745.75 254.85 714.72 244.51 714.72 244.51 704.38 213.49 704.38 213.49 714.72"/><polygon class="cls-2" points="213.49 704.38 213.49 725.06 203.15 725.06 203.15 745.75 192.81 745.75 192.81 766.43 203.15 766.43 203.15 776.77 285.87 776.77 285.87 766.43 296.21 766.43 296.21 756.09 285.87 756.09 285.87 745.75 254.85 745.75 254.85 714.72 244.51 714.72 244.51 704.38 213.49 704.38"/><polygon class="cls-1" points="170.22 596.2 165.38 596.2 165.38 605.9 160.53 605.9 160.53 610.75 155.68 610.75 155.68 625.29 160.53 625.29 160.53 630.13 204.15 630.13 204.15 625.29 209 625.29 209 615.59 204.03 615.59 204.03 610.75 189.61 610.75 189.61 596.2 184.76 596.2 184.76 591.36 170.22 591.36 170.22 596.2"/><polygon class="cls-2" points="170.22 591.36 170.22 601.05 165.38 601.05 165.38 610.75 160.53 610.75 160.53 620.44 165.38 620.44 165.38 625.29 204.15 625.29 204.15 620.44 209 620.44 209 615.59 204.15 615.59 204.15 610.75 189.61 610.75 189.61 596.2 184.76 596.2 184.76 591.36 170.22 591.36"/><polygon class="cls-1" points="352.13 173.29 343.65 173.29 343.65 190.26 335.16 190.26 335.16 198.75 326.68 198.75 326.68 224.19 335.16 224.19 335.16 232.68 411.52 232.68 411.52 224.19 420 224.19 420 207.23 411.31 207.23 411.31 198.75 386.07 198.75 386.07 173.29 377.58 173.29 377.58 164.81 352.13 164.81 352.13 173.29"/><polygon class="cls-2" points="352.13 164.81 352.13 181.78 343.65 181.78 343.65 198.75 335.16 198.75 335.16 215.71 343.65 215.71 343.65 224.19 411.52 224.19 411.52 215.71 420 215.71 420 207.23 411.52 207.23 411.52 198.75 386.07 198.75 386.07 173.29 377.58 173.29 377.58 164.81 352.13 164.81"/><polygon class="cls-1" points="1637.22 138.2 1632.38 138.2 1632.38 147.9 1627.53 147.9 1627.53 152.75 1622.68 152.75 1622.68 167.29 1627.53 167.29 1627.53 172.13 1671.15 172.13 1671.15 167.29 1676 167.29 1676 157.59 1671.03 157.59 1671.03 152.75 1656.61 152.75 1656.61 138.2 1651.76 138.2 1651.76 133.36 1637.22 133.36 1637.22 138.2"/><polygon class="cls-2" points="1637.22 133.36 1637.22 143.05 1632.38 143.05 1632.38 152.75 1627.53 152.75 1627.53 162.44 1632.38 162.44 1632.38 167.29 1671.15 167.29 1671.15 162.44 1676 162.44 1676 157.59 1671.15 157.59 1671.15 152.75 1656.61 152.75 1656.61 138.2 1651.76 138.2 1651.76 133.36 1637.22 133.36"/><polygon class="cls-1" points="1732.19 238.72 1742.53 238.72 1742.53 259.4 1752.87 259.4 1752.87 269.75 1763.21 269.75 1763.21 300.77 1752.87 300.77 1752.87 311.11 1659.81 311.11 1659.81 300.77 1649.47 300.77 1649.47 280.08 1660.06 280.08 1660.06 269.75 1690.83 269.75 1690.83 238.72 1701.17 238.72 1701.17 228.38 1732.19 228.38 1732.19 238.72"/><polygon class="cls-2" points="1732.19 228.38 1732.19 249.06 1742.53 249.06 1742.53 269.75 1752.87 269.75 1752.87 290.43 1742.53 290.43 1742.53 300.77 1659.81 300.77 1659.81 290.43 1649.47 290.43 1649.47 280.08 1659.81 280.08 1659.81 269.75 1690.83 269.75 1690.83 238.72 1701.17 238.72 1701.17 228.38 1732.19 228.38"/><polygon class="cls-1" points="1624.68 856.94 1637.62 856.94 1637.62 882.81 1650.55 882.81 1650.55 895.75 1663.49 895.75 1663.49 934.55 1650.55 934.55 1650.55 947.49 1534.13 947.49 1534.13 934.55 1521.19 934.55 1521.19 908.68 1534.45 908.68 1534.45 895.75 1572.94 895.75 1572.94 856.94 1585.87 856.94 1585.87 844 1624.68 844 1624.68 856.94"/><polygon class="cls-2" points="1624.68 844 1624.68 869.87 1637.62 869.87 1637.62 895.75 1650.55 895.75 1650.55 921.62 1637.62 921.62 1637.62 934.55 1534.13 934.55 1534.13 921.62 1521.19 921.62 1521.19 908.68 1534.13 908.68 1534.13 895.75 1572.94 895.75 1572.94 856.94 1585.87 856.94 1585.87 844 1624.68 844"/></svg>